<?xml version="1.0" standalone="no"?>
<!DOCTYPE svg PUBLIC "-//W3C//DTD SVG 20010904//EN"
 "http://www.w3.org/TR/2001/REC-SVG-20010904/DTD/svg10.dtd">
<svg version="1.0" xmlns="http://www.w3.org/2000/svg"
 width="622.000000pt" height="1003.000000pt" viewBox="0 0 622.000000 1003.000000"
 preserveAspectRatio="xMidYMid meet">

<g transform="translate(0.000000,1003.000000) scale(0.100000,-0.100000)"
fill="#000000" stroke="none">
<path d="M4635 10024 c-111 -16 -231 -38 -300 -55 -87 -22 -253 -75 -272 -87
-8 -5 -33 -181 -73 -512 -33 -277 -59 -505 -57 -506 8 -9 151 -24 157 -17 4 5
22 51 40 103 127 369 353 686 560 788 142 70 265 72 389 7 191 -100 329 -336
392 -669 18 -93 22 -161 26 -420 3 -189 1 -371 -6 -470 -92 -1252 -590 -2409
-1605 -3721 l-106 -137 0 -89 0 -89 1107 2 1107 3 112 580 c62 319 112 581
111 581 -1 1 -35 9 -76 17 l-73 15 -21 -52 c-41 -99 -117 -247 -159 -309 -94
-140 -228 -238 -366 -266 -59 -12 -679 -15 -983 -4 l-185 6 141 176 c546 681
909 1236 1199 1831 261 537 378 891 447 1360 26 173 37 592 20 764 -55 561
-320 931 -784 1095 -166 58 -259 73 -497 76 -118 2 -228 1 -245 -1z"/>
<path d="M2000 9790 c0 -970 -350 -1634 -999 -1896 -256 -103 -424 -135 -753
-141 l-248 -5 0 -154 0 -154 745 0 745 0 3 -3227 3 -3228 22 -115 c62 -324
154 -524 311 -681 99 -99 188 -149 311 -175 224 -47 481 49 715 267 160 150
347 426 457 674 77 172 707 1633 710 1645 3 12 -156 119 -177 120 -6 0 -145
-318 -309 -707 -341 -807 -368 -868 -424 -950 -192 -282 -470 -340 -661 -138
-57 60 -103 145 -125 232 -14 55 -16 376 -16 3172 l0 3111 795 0 795 0 0 155
0 155 -795 0 -795 0 0 1120 0 1120 -155 0 -155 0 0 -200z"/>
<path d="M3698 517 c-130 -37 -206 -178 -167 -314 17 -62 97 -147 154 -162
162 -44 310 48 330 205 24 176 -144 319 -317 271z m150 -52 c131 -56 166 -228
66 -329 -37 -37 -100 -66 -144 -66 -38 0 -113 31 -143 58 -25 23 -54 80 -62
123 -14 76 36 168 114 209 44 23 119 25 169 5z"/>
<path d="M3693 414 c-10 -4 -13 -42 -13 -140 l0 -134 30 0 c30 0 30 1 30 55 0
48 3 55 19 55 29 0 48 -24 56 -70 6 -37 9 -40 40 -40 l33 0 -23 67 c-21 59
-22 70 -9 84 21 24 18 82 -7 105 -20 18 -128 31 -156 18z m105 -50 c12 -8 22
-21 22 -29 0 -17 -38 -45 -62 -45 -15 0 -18 9 -18 45 0 50 16 58 58 29z"/>
</g>
</svg>
